

Release info:

General
Format                                   : Matroska
Format version                           : Version 2
File size                                : 715 MiB
Duration                                 : 1h 44mn
Overall bit rate                         : 953 Kbps
Movie name                               : Saadi Love Story 2013 DVDScr Hindi

Video
ID                                       : 1
Format                                   : MPEG-4 Visual
Format profile                           : Advanced Simple@L5
Format settings, BVOP                    : Yes
Format settings, QPel                    : Yes
Format settings, GMC                     : No warppoints
Format settings, Matrix                  : Default (H.263)
Codec ID                                 : V_MS/VFW/FOURCC / XVID
Codec ID/Hint                            : XviD
Duration                                 : 1h 44mn
Bit rate                                 : 806 Kbps
Width                                    : 640 pixels
Height                                   : 272 pixels
Display aspect ratio                     : 2.35:1
Frame rate mode                          : Constant
Frame rate                               : 23.976 fps
Color space                              : YUV
Chroma subsampling                       : 4:2:0
Bit depth                                : 8 bits
Scan type                                : Progressive
Compression mode                         : Lossy
Bits/(Pixel*Frame)                       : 0.193
Stream size                              : 605 MiB (85%)
Title                                    : Saadi Love Story 2013 DVDScr Hindi
Language                                 : Hindi
Default                                  : Yes
Forced                                   : No

Audio
ID                                       : 2
Format                                   : MPEG Audio
Format version                           : Version 1
Format profile                           : Layer 2
Muxing mode                              : Header stripping
Codec ID                                 : A_MPEG/L2
Codec ID/Hint                            : MP2
Duration                                 : 1h 44mn
Bit rate mode                            : Constant
Bit rate                                 : 128 Kbps
Channel(s)                               : 2 channels
Sampling rate                            : 48.0 KHz
Compression mode                         : Lossy
Stream size                              : 96.0 MiB (13%)
Title                                    : Saadi Love Story 2013 DVDScr Hindi
Language                                 : Hindi
Default                                  : Yes
Forced                                   : No



Source:
credit to original movie ripper  (Thanks)

IMDB Info:

Cast:
Diljit Dosanjh, Amrinder Gill, Surveen Chawla, Neetu Singh, Jimmy Shergill
Director:
Dheeraj Rattan
Writer:
Dheeraj Rattan
Producer:
Jimmy Shergill
Music director:
Jaidev Kumar
Genre:
Comedy
Release date:
11 January 2013



Screen Shot:
 
http://www.shotpix.com/images/20733881236043833387.png 
http://www.shotpix.com/images/63907928454627557651.png 
http://www.shotpix.com/images/66976286224901181081.png 
http://www.shotpix.com/images/66442483576750415710.png